{
  "accessors": [
    {
      "bufferView": 2,
      "componentType": 5126,
      "count": 2712,
      "max": [
        18.48647117614746,
        161.07208251953125,
        14.847635269165039
      ],
      "min": [
        -18.591434478759766,
        74.99869537353516,
        -14.997466087341309
      ],
      "type": "VEC3"
    },
    {
      "bufferView": 2,
      "byteOffset": 32544,
      "componentType": 5126,
      "count": 2712,
      "max": [
        0.9993135929107666,
        0.9331399202346802,
        0.9996933937072754
      ],
      "min": [
        -0.9997560977935791,
        -0.9995257258415222,
        -0.9999281764030457
      ],
      "type": "VEC3"
    },
    {
      "bufferView": 1,
      "componentType": 5126,
      "count": 2712,
      "max": [
        202.3026123046875,
        216.9898681640625
      ],
      "min": [
        -202.3026123046875,
        -271.86480712890625
      ],
      "type": "VEC2"
    },
    {
      "bufferView": 0,
      "componentType": 5125,
      "count": 13656,
      "type": "SCALAR"
    },
    {
      "bufferView": 2,
      "byteOffset": 65088,
      "componentType": 5126,
      "count": 8996,
      "max": [
        22.461671829223633,
        165.78404235839844,
        15.602676391601563
      ],
      "min": [
        -21.26234245300293,
        17.760757446289063,
        -21.025671005249023
      ],
      "type": "VEC3"
    },
    {
      "bufferView": 2,
      "byteOffset": 173040,
      "componentType": 5126,
      "count": 8996,
      "max": [
        0.9999704957008362,
        0.880918562412262,
        0.9999997615814209
      ],
      "min": [
        -0.999907374382019,
        -0.9994714856147766,
        -0.9999862909317017
      ],
      "type": "VEC3"
    },
    {
      "bufferView": 1,
      "byteOffset": 21696,
      "componentType": 5126,
      "count": 8996,
      "max": [
        873.2862548828125,
        525.851806640625
      ],
      "min": [
        -873.2861328125,
        -526.822265625
      ],
      "type": "VEC2"
    },
    {
      "bufferView": 0,
      "byteOffset": 54624,
      "componentType": 5125,
      "count": 52716,
      "type": "SCALAR"
    },
    {
      "bufferView": 2,
      "byteOffset": 280992,
      "componentType": 5126,
      "count": 20,
      "max": [
        -3.8824729919433594,
        128.51902770996094,
        8.73233699798584
      ],
      "min": [
        -8.62840747833252,
        123.4209976196289,
        6.792112827301025
      ],
      "type": "VEC3"
    },
    {
      "bufferView": 2,
      "byteOffset": 281232,
      "componentType": 5126,
      "count": 20,
      "max": [
        -0.3355174958705902,
        0.06081970036029816,
        0.9400690197944641
      ],
      "min": [
        -0.3355281949043274,
        0.0608062744140625,
        0.9400651454925537
      ],
      "type": "VEC3"
    },
    {
      "bufferView": 1,
      "byteOffset": 93664,
      "componentType": 5126,
      "count": 20,
      "max": [
        23.899364471435547,
        26.7296142578125
      ],
      "min": [
        -25.253742218017578,
        -24.214111328125
      ],
      "type": "VEC2"
    },
    {
      "bufferView": 0,
      "byteOffset": 265488,
      "componentType": 5125,
      "count": 60,
      "type": "SCALAR"
    }
  ],
  "asset": {
    "extras": {
      "author": "mictab (https://sketchfab.com/Michela.Tabone)",
      "license": "CC-BY-4.0 (http://creativecommons.org/licenses/by/4.0/)",
      "source": "https://sketchfab.com/3d-models/high-fashion-dress-0c15bf821a7546e7af4af3567a0efbdc",
      "title": "High Fashion Dress"
    },
    "generator": "Sketchfab-13.37.0",
    "version": "2.0"
  },
  "bufferViews": [
    {
      "buffer": 0,
      "byteLength": 265728,
      "name": "floatBufferViews",
      "target": 34963
    },
    {
      "buffer": 0,
      "byteLength": 93824,
      "byteOffset": 265728,
      "byteStride": 8,
      "name": "floatBufferViews",
      "target": 34962
    },
    {
      "buffer": 0,
      "byteLength": 281472,
      "byteOffset": 359552,
      "byteStride": 12,
      "name": "floatBufferViews",
      "target": 34962
    }
  ],
  "buffers": [
    {
      "byteLength": 641024,
      "uri": "scene.bin"
    }
  ],
  "materials": [
    {
      "doubleSided": true,
      "name": "FABRIC_1_FRONT_3601",
      "pbrMetallicRoughness": {
        "baseColorFactor": [
          0.0,
          0.0,
          0.0,
          1.0
        ],
        "metallicFactor": 0.0,
        "roughnessFactor": 0.9826311700321614
      }
    },
    {
      "alphaMode": "BLEND",
      "doubleSided": true,
      "name": "Chiffon_FRONT_2052544",
      "pbrMetallicRoughness": {
        "baseColorFactor": [
          0.0,
          0.0,
          0.0,
          0.693335446355646
        ],
        "metallicFactor": 0.0,
        "roughnessFactor": 0.9782630369103825
      }
    },
    {
      "doubleSided": true,
      "name": "FABRIC_4_FRONT_3312411",
      "pbrMetallicRoughness": {
        "baseColorFactor": [
          0.168627,
          0.167971,
          0.167971,
          1.0
        ],
        "metallicFactor": 0.7360022430544549,
        "roughnessFactor": 0.44076020041203934
      }
    }
  ],
  "meshes": [
    {
      "name": "HighFashionDress_FABRIC 1_FRONT_3601_0",
      "primitives": [
        {
          "attributes": {
            "NORMAL": 1,
            "POSITION": 0,
            "TEXCOORD_0": 2
          },
          "indices": 3,
          "material": 0,
          "mode": 4
        }
      ]
    },
    {
      "name": "HighFashionDress_Chiffon_FRONT_2052544_0",
      "primitives": [
        {
          "attributes": {
            "NORMAL": 5,
            "POSITION": 4,
            "TEXCOORD_0": 6
          },
          "indices": 7,
          "material": 1,
          "mode": 4
        }
      ]
    },
    {
      "name": "HighFashionDress_FABRIC 4_FRONT_3312411_0",
      "primitives": [
        {
          "attributes": {
            "NORMAL": 9,
            "POSITION": 8,
            "TEXCOORD_0": 10
          },
          "indices": 11,
          "material": 2,
          "mode": 4
        }
      ]
    }
  ],
  "nodes": [
    {
      "children": [
        1
      ],
      "matrix": [
        1.0,
        0.0,
        0.0,
        0.0,
        0.0,
        2.220446049250313e-16,
        -1.0,
        0.0,
        0.0,
        1.0,
        2.220446049250313e-16,
        0.0,
        0.0,
        0.0,
        0.0,
        1.0
      ],
      "name": "Sketchfab_model"
    },
    {
      "children": [
        2
      ],
      "matrix": [
        0.0010000000474974513,
        0.0,
        0.0,
        0.0,
        0.0,
        0.0,
        0.0010000000474974513,
        0.0,
        0.0,
        -0.0010000000474974513,
        0.0,
        0.0,
        0.0,
        0.0,
        0.0,
        1.0
      ],
      "name": "21ad1081afb345aa8530be3270a53af3.fbx"
    },
    {
      "children": [
        3
      ],
      "name": "RootNode"
    },
    {
      "children": [
        4,
        5,
        6
      ],
      "matrix": [
        10.0,
        0.0,
        0.0,
        0.0,
        0.0,
        10.0,
        0.0,
        0.0,
        0.0,
        0.0,
        10.0,
        0.0,
        0.0,
        0.0,
        0.0,
        1.0
      ],
      "name": "HighFashionDress"
    },
    {
      "mesh": 0,
      "name": "HighFashionDress_FABRIC 1_FRONT_3601_0"
    },
    {
      "mesh": 1,
      "name": "HighFashionDress_Chiffon_FRONT_2052544_0"
    },
    {
      "mesh": 2,
      "name": "HighFashionDress_FABRIC 4_FRONT_3312411_0"
    }
  ],
  "scene": 0,
  "scenes": [
    {
      "name": "Sketchfab_Scene",
      "nodes": [
        0
      ]
    }
  ]
}
